<?xml version="1.0" standalone="no"?>
<!DOCTYPE svg PUBLIC "-//W3C//DTD SVG 20010904//EN"
 "http://www.w3.org/TR/2001/REC-SVG-20010904/DTD/svg10.dtd">
<svg version="1.0" xmlns="http://www.w3.org/2000/svg"
 width="2000.000000pt" height="2000.000000pt" viewBox="0 0 2000.000000 2000.000000"
 preserveAspectRatio="xMidYMid meet">
<metadata>
Created by potrace 1.11, written by Peter Selinger 2001-2013
</metadata>
<g transform="translate(0.000000,2000.000000) scale(0.100000,-0.100000)"
fill="#000000" stroke="none">
<path d="M11188 15995 c-2 -2 -93 -6 -203 -10 -110 -3 -249 -8 -310 -10 -60
-2 -186 -7 -280 -10 -93 -3 -199 -8 -235 -10 -36 -2 -132 -6 -215 -10 -82 -3
-181 -8 -220 -10 -38 -3 -128 -7 -200 -10 -71 -3 -170 -7 -220 -10 -312 -16
-306 -15 -545 -30 -195 -11 -368 -21 -525 -30 -60 -3 -139 -8 -175 -10 -36 -2
-114 -7 -175 -10 -60 -4 -130 -8 -155 -10 -25 -2 -90 -6 -145 -10 -55 -3 -125
-8 -155 -10 -30 -3 -93 -7 -140 -10 -47 -3 -114 -7 -150 -10 -36 -2 -103 -7
-150 -10 -47 -3 -114 -7 -150 -10 -36 -3 -103 -7 -150 -10 -47 -3 -110 -8
-140 -10 -30 -2 -93 -7 -140 -10 -47 -3 -105 -8 -130 -10 -25 -2 -83 -7 -130
-10 -47 -3 -101 -8 -120 -10 -19 -2 -75 -7 -125 -10 -49 -4 -106 -8 -125 -10
-19 -2 -82 -7 -140 -10 -58 -4 -113 -9 -123 -11 -10 -2 -66 -6 -125 -9 -59 -4
-118 -8 -132 -10 -14 -2 -56 -6 -95 -10 -86 -6 -175 -14 -235 -20 -25 -2 -74
-7 -110 -10 -148 -12 -265 -23 -320 -30 -19 -2 -66 -7 -105 -10 -38 -4 -81 -8
-95 -10 -14 -2 -61 -6 -105 -10 -44 -3 -87 -8 -95 -10 -8 -2 -50 -6 -92 -10
-42 -3 -85 -7 -95 -9 -10 -2 -49 -7 -88 -10 -38 -4 -81 -9 -95 -11 -36 -5
-107 -14 -170 -20 -30 -3 -73 -8 -95 -11 -22 -3 -53 -8 -70 -10 -16 -2 -79
-10 -140 -19 -60 -8 -122 -16 -137 -17 -16 -1 -28 -6 -28 -10 0 -4 62 -5 138
-3 75 2 288 7 472 10 184 4 414 8 510 11 275 6 1770 6 2025 0 228 -6 493 -13
735 -21 120 -4 280 -10 480 -20 52 -3 149 -7 215 -10 66 -3 145 -8 175 -10 30
-2 100 -7 155 -10 55 -4 125 -8 155 -10 30 -2 98 -7 150 -10 52 -3 113 -8 135
-10 22 -2 99 -9 170 -15 72 -5 146 -12 165 -15 19 -3 71 -7 115 -10 44 -3 96
-7 115 -10 19 -2 64 -7 100 -10 36 -3 76 -8 90 -10 14 -2 52 -7 85 -10 33 -3
74 -8 90 -10 48 -6 116 -14 170 -20 28 -3 64 -8 80 -10 17 -2 55 -7 85 -10 50
-5 167 -20 230 -30 14 -2 72 -11 130 -20 58 -8 114 -17 125 -19 11 -2 40 -7
65 -11 25 -4 52 -9 60 -10 8 -1 40 -6 70 -10 30 -4 63 -9 72 -11 9 -1 68 -10
130 -19 113 -16 146 -21 183 -29 11 -2 45 -7 75 -11 30 -4 64 -9 75 -11 11 -3
35 -7 54 -10 18 -3 43 -8 55 -10 11 -2 39 -7 61 -9 22 -3 47 -8 55 -10 8 -2
29 -7 46 -9 17 -3 98 -19 180 -35 82 -17 165 -33 184 -36 65 -11 356 -83 486
-120 71 -21 143 -41 159 -45 116 -31 582 -178 735 -231 223 -79 565 -213 730
-286 301 -134 655 -309 833 -412 49 -28 90 -51 93 -51 10 0 407 -245 539 -333
196 -131 538 -379 570 -412 6 -6 35 -30 65 -52 55 -42 193 -155 240 -196 14
-12 50 -44 81 -70 l56 -47 69 73 c38 40 92 99 119 131 28 32 55 64 61 70 41
44 180 231 246 331 279 425 371 808 275 1140 -51 174 -144 323 -296 475 -262
260 -690 485 -1256 661 -127 40 -183 56 -252 73 -239 61 -481 117 -558 130
-16 3 -75 14 -130 25 -55 11 -134 25 -175 31 -41 7 -84 14 -95 16 -41 8 -294
45 -405 59 -202 27 -247 32 -345 40 -33 3 -71 7 -85 10 -14 2 -52 7 -85 10
-33 3 -76 8 -95 10 -19 2 -75 7 -125 10 -49 3 -106 8 -125 10 -19 2 -75 6
-125 10 -49 3 -112 8 -140 10 -27 2 -115 7 -195 11 -80 4 -163 9 -185 11 -46
4 -1043 12 -1047 8z"/>
<path d="M6237 15240 c4 -5 89 -22 188 -40 99 -17 198 -36 220 -40 35 -8 196
-39 280 -55 29 -5 445 -102 475 -110 28 -8 205 -56 220 -59 161 -39 669 -215
830 -288 25 -11 80 -36 123 -55 111 -49 323 -160 387 -203 286 -193 404 -570
335 -1070 -8 -54 -17 -112 -26 -160 -6 -30 -15 -73 -19 -95 -59 -307 -284
-924 -511 -1404 -33 -68 -59 -125 -59 -127 0 -2 -90 -187 -201 -411 -193 -392
-236 -484 -265 -565 -12 -35 -12 -38 6 -38 21 0 117 71 207 152 93 83 538 531
664 668 170 184 195 213 218 239 20 22 131 147 161 181 55 60 101 113 140 159
25 30 50 59 55 65 33 35 194 227 270 321 49 61 116 144 150 185 190 233 599
792 690 942 5 9 38 61 71 115 34 54 76 125 94 158 18 33 36 65 40 70 16 20
109 212 143 295 122 297 122 515 1 586 -35 21 -240 96 -305 112 -267 68 -566
132 -749 161 -36 6 -76 13 -90 15 -14 3 -41 7 -60 10 -19 3 -44 7 -55 10 -11
2 -42 7 -70 10 -27 4 -57 9 -65 11 -8 2 -37 7 -65 11 -66 8 -87 11 -137 19
-71 11 -91 14 -140 19 -26 3 -62 8 -80 11 -33 4 -162 21 -228 29 -19 3 -62 7
-95 11 -33 3 -73 8 -90 10 -16 2 -61 7 -100 10 -38 4 -81 8 -95 10 -14 2 -56
7 -95 10 -38 3 -86 8 -105 10 -101 11 -142 15 -215 20 -44 4 -98 8 -120 10
-81 7 -192 16 -255 20 -36 2 -106 7 -156 10 -50 3 -110 7 -135 10 -24 2 -114
7 -199 11 -85 3 -180 7 -210 9 -279 15 -985 26 -973 15z"/>
<path d="M11566 14503 c-2 -10 -7 -39 -11 -65 -12 -99 -76 -310 -132 -438 -68
-156 -234 -463 -327 -605 -18 -27 -64 -97 -101 -155 -38 -58 -71 -107 -75
-110 -3 -3 -32 -43 -65 -90 -122 -177 -452 -601 -600 -771 -22 -25 -60 -70
-85 -100 -53 -63 -261 -302 -269 -309 -3 -3 -24 -25 -45 -50 -22 -25 -78 -87
-124 -138 -47 -51 -94 -102 -104 -115 -21 -23 -200 -216 -358 -382 -230 -244
-1263 -1266 -1490 -1475 -37 -34 -265 -247 -310 -290 -57 -54 -268 -249 -320
-296 -30 -27 -81 -74 -114 -104 -32 -30 -64 -59 -70 -65 -19 -17 -209 -189
-226 -205 -9 -8 -52 -46 -95 -85 -43 -38 -83 -74 -89 -80 -10 -9 -135 -120
-216 -191 -19 -17 -62 -55 -96 -85 -65 -59 -178 -158 -211 -186 -11 -10 -47
-40 -78 -68 -32 -27 -63 -55 -69 -60 -6 -6 -42 -37 -81 -70 -38 -33 -72 -62
-75 -65 -3 -3 -54 -48 -115 -100 -60 -52 -128 -111 -150 -131 -22 -20 -56 -50
-75 -65 -19 -16 -37 -31 -40 -34 -3 -3 -50 -44 -105 -90 -55 -47 -105 -89
-111 -95 -6 -5 -32 -28 -58 -50 -27 -22 -56 -47 -66 -55 -10 -8 -42 -36 -71
-61 -64 -55 -304 -257 -373 -314 -27 -22 -63 -52 -80 -66 -74 -63 -175 -147
-218 -182 -26 -21 -53 -43 -60 -50 -7 -7 -71 -59 -143 -116 -71 -58 -132 -107
-135 -111 -3 -3 -57 -48 -120 -100 -63 -52 -117 -97 -120 -100 -3 -3 -34 -30
-70 -60 -104 -88 -229 -211 -267 -263 -21 -28 -36 -60 -37 -80 -1 -27 4 -35
34 -50 30 -15 54 -17 160 -13 69 3 134 7 145 9 11 3 41 7 66 11 53 8 93 14
129 21 14 3 43 8 65 11 65 9 516 103 570 119 28 8 138 37 245 65 183 48 564
161 661 196 24 8 51 17 59 19 50 14 430 147 650 230 441 164 1057 421 1458
606 46 22 85 39 87 39 2 0 63 28 136 63 74 35 186 88 249 118 160 74 861 425
995 497 61 32 164 87 230 122 66 35 138 73 160 85 22 12 76 41 120 65 448 241
1063 598 1585 918 1351 830 2579 1704 3715 2643 59 49 432 365 441 373 6 6 41
38 79 71 38 33 80 71 94 84 14 13 43 37 64 54 20 17 37 37 37 44 0 26 -461
475 -615 599 -33 26 -62 51 -65 54 -35 37 -404 318 -529 402 -42 28 -78 54
-81 57 -10 12 -457 301 -465 301 -2 0 -59 33 -128 74 -69 41 -160 93 -203 116
-44 23 -101 55 -129 70 -171 95 -482 246 -765 373 -310 138 -796 309 -945 333
-22 3 -43 8 -47 10 -4 2 -9 -4 -12 -13z"/>
<path d="M6027 5164 c-404 -79 -667 -401 -660 -810 6 -340 222 -630 548 -739
148 -49 385 -57 536 -17 295 79 525 311 586 595 15 71 22 254 11 312 -52 274
-209 480 -451 593 -37 18 -73 32 -80 32 -8 0 -17 3 -21 7 -4 4 -43 15 -88 24
-98 20 -287 22 -381 3z m316 -389 c126 -38 235 -144 279 -276 19 -58 20 -178
1 -242 -52 -175 -222 -300 -409 -300 -127 0 -217 37 -310 128 -84 81 -123 178
-119 296 2 90 19 148 60 214 103 164 306 237 498 180z"/>
<path d="M7927 5170 c-353 -60 -616 -315 -675 -655 -12 -66 -7 -267 7 -320 50
-189 142 -336 281 -447 94 -76 252 -145 378 -165 94 -16 321 -7 404 15 291 78
499 279 580 557 19 68 23 103 23 225 -1 123 -4 156 -24 220 -52 168 -141 302
-260 393 -31 23 -58 45 -61 48 -14 17 -160 82 -237 105 -74 22 -111 27 -228
29 -77 2 -162 -1 -188 -5z m278 -391 c99 -27 192 -97 250 -189 68 -108 77
-268 22 -390 -25 -56 -95 -136 -150 -171 -136 -88 -311 -96 -449 -22 -55 29
-158 126 -158 148 0 7 -6 18 -14 24 -34 28 -58 193 -42 281 12 63 62 154 113
207 107 110 272 153 428 112z"/>
<path d="M10658 5175 c-2 -2 -15 -6 -28 -8 -14 -3 -50 -15 -81 -26 -193 -73
-300 -237 -301 -461 0 -121 26 -198 91 -271 60 -67 129 -105 297 -165 159 -56
217 -87 239 -129 25 -45 16 -113 -20 -153 -83 -93 -296 -64 -455 61 -41 33
-60 38 -60 17 0 -4 -17 -39 -38 -77 -21 -37 -57 -103 -80 -145 l-41 -78 68
-40 c218 -129 501 -165 726 -92 117 38 238 142 284 244 70 154 67 342 -6 468
-58 101 -178 179 -367 240 -181 58 -233 99 -223 176 17 127 227 151 383 43 29
-20 45 -25 50 -18 4 7 40 76 80 155 l73 143 -47 22 c-148 67 -276 96 -425 96
-64 1 -117 -1 -119 -2z"/>
<path d="M13231 5164 c-259 -55 -446 -189 -564 -404 -68 -125 -92 -224 -92
-385 1 -156 17 -231 81 -360 99 -202 289 -356 514 -416 101 -27 284 -36 391
-19 339 53 596 280 678 600 15 60 18 103 16 210 -3 144 -17 215 -60 307 -14
28 -25 54 -25 58 0 8 -51 85 -80 120 -135 162 -312 261 -525 295 -79 12 -264
9 -334 -6z m299 -384 c304 -82 414 -448 207 -686 -35 -41 -133 -101 -190 -118
-237 -68 -459 46 -543 279 -10 28 -13 50 -15 121 -5 145 87 299 221 369 87 47
223 61 320 35z"/>
<path d="M4324 4375 l0 -765 198 0 198 0 0 300 0 300 218 0 218 0 0 170 0 170
-196 0 c-107 -1 -205 -1 -217 0 -23 0 -23 2 -23 128 l0 127 239 -1 240 -1 0
169 0 168 -437 0 -438 0 0 -765z"/>
<path d="M9027 5133 c-2 -5 -4 -80 -3 -168 l1 -160 150 -2 c83 0 156 -2 163
-2 9 -1 12 -127 12 -596 l0 -595 198 2 197 3 1 588 c0 411 4 591 12 595 6 4
78 7 161 6 l151 -2 1 37 c1 35 1 232 0 279 l-1 22 -519 0 c-286 0 -522 -3
-524 -7z"/>
<path d="M11429 5128 c-5 -64 -2 -302 3 -311 5 -8 57 -12 164 -13 l157 -1 0
-596 0 -597 198 0 199 0 0 595 c0 469 3 595 13 596 6 0 80 2 162 2 l150 2 1
168 0 167 -523 0 c-411 0 -523 -3 -524 -12z"/>
<path d="M14518 5133 c0 -4 -2 -349 -3 -765 l-1 -758 198 0 198 0 0 254 0 253
133 1 c206 1 308 17 399 63 61 31 141 111 172 173 25 50 33 73 53 156 12 52 6
216 -11 280 -49 190 -146 278 -367 337 -37 10 -769 16 -771 6z m627 -330 c75
-26 115 -86 115 -173 0 -91 -48 -160 -123 -178 -23 -6 -82 -12 -132 -13 l-90
-2 -3 192 -2 193 97 -3 c54 -1 116 -9 138 -16z"/>
</g>
</svg>
